<svg id="Layer_1" data-name="Layer 1" xmlns="http://www.w3.org/2000/svg" viewBox="0 0 1089.59 265.66"><defs><style>.cls-1{fill:#ba9060;stroke:#000;stroke-width:4px;}.cls-1,.cls-2{stroke-miterlimit:10;}.cls-2{fill:none;stroke:#f7931e;stroke-width:20px;}</style></defs><title>logo</title><path class="cls-1" d="M99.75,28.17q0,16.17-18.08,20.43l3.68,1.47q11.46,4.56,15.14,12A26.89,26.89,0,0,1,103.28,74q0,14-10.07,21.68t-28.15,7.72q-5.73,0-12.05-.44l-10.44-.74q-4.11-.28-9-.29c-2.35,0-5.78.25-10.29.73s-7.74.74-9.7.74H12.44a10.09,10.09,0,0,1-7.57-2.94A10.69,10.69,0,0,1,2,92.7a10.57,10.57,0,0,1,2.28-6.91A7,7,0,0,1,9.94,83a17.55,17.55,0,0,1,3.6.51A16.77,16.77,0,0,0,17,84q4,0,4-10V33.31q0-9.84-4-9.85a16.77,16.77,0,0,0-3.45.52,17.55,17.55,0,0,1-3.6.51A7,7,0,0,1,4.28,21.7,10.57,10.57,0,0,1,2,14.79,11,11,0,0,1,4.87,6.92a10,10,0,0,1,7.57-3H13a2.42,2.42,0,0,0,.59.15l10.44,1q4.41.44,11.76.44,5.73,0,9.11-.3l10-.88c2.25-.19,5.54-.29,9.85-.29A68.14,68.14,0,0,1,82.26,6.12,23.28,23.28,0,0,1,94.9,14.27,21.7,21.7,0,0,1,99.75,28.17ZM46.25,38c0,2,.39,3.19,1.17,3.68.49.39,1.72.59,3.68.59h4.55q7.65,0,12.13-2.8c3-1.86,4.49-4.35,4.49-7.49q0-9.85-15.29-9.85c-3.73,0-6.27.29-7.65.88q-3.07,1.47-3.08,6.32ZM75.79,73q0-6-5.44-9.7T56,59.62H51.54q-3.24,0-4.26,1c-.69.64-1,1.84-1,3.6V74.91c0,3.73,1.07,6.3,3.23,7.72s6.08,2.13,11.76,2.13q6.46,0,10.51-3.23A10.38,10.38,0,0,0,75.79,73Z"/><path class="cls-1" d="M160.17,105.34q-22.35,0-34.55-13.52t-12.2-38.37q0-24,12.13-37.71T159,2q22.35,0,34.84,13.38t12.5,37.33q0,24.85-12.13,38.74T160.17,105.34ZM160,22.58q-19.11,0-19.11,31.16,0,14.85,3.68,22.05,4.54,9,15.29,9,19,0,19-30.28,0-16.75-4.48-24.33T160,22.58Z"/><path class="cls-1" d="M232.05,75.35,246.9,54.48,232.2,32q-5-7.65-9.7-7.65h-2.06a15.87,15.87,0,0,1-2.5.15q-8.08,0-8.08-9.26A10.76,10.76,0,0,1,213,7.15a11.16,11.16,0,0,1,8.16-3.09,42.85,42.85,0,0,1,5.14.29q9.56,1.19,11.47,1.18A67.28,67.28,0,0,0,246,4.79a66.67,66.67,0,0,1,8.23-.73,8.58,8.58,0,0,1,6.69,2.86,10.74,10.74,0,0,1,2.57,7.43q0,4.11-2.5,5.73l-2.35,1.47a2.94,2.94,0,0,0-1.76,2.5,12.75,12.75,0,0,0,1.91,5.44L266,42.87l8.38-13.38c1.66-2.65,2.5-4.46,2.5-5.44s-.64-1.71-1.91-2.5q-4.41-2.79-4.41-7.06a11.11,11.11,0,0,1,2.5-7.57,8.33,8.33,0,0,1,6.61-2.86,63.06,63.06,0,0,1,7.94.73,63.82,63.82,0,0,0,8.08.74,60.4,60.4,0,0,0,7.8-.74,59.46,59.46,0,0,1,7.64-.73,8.64,8.64,0,0,1,6.76,3.23,11.73,11.73,0,0,1,2.79,7.94,10.2,10.2,0,0,1-2.2,6.76,7.09,7.09,0,0,1-5.73,2.65,4,4,0,0,1-.89-.15h-1c-1.38-.19-2.21-.29-2.5-.29q-3.39,0-9,7.79l-14.7,20.28,14.7,23.08L302,78.88l2.21,3.23a5.42,5.42,0,0,0,3.53,1.33,10.65,10.65,0,0,0,2.64-.3,8.84,8.84,0,0,0,1.47-.14h1.33q7.64,0,7.64,9.4a11.12,11.12,0,0,1-2.94,7.87,9.78,9.78,0,0,1-7.5,3.16,74,74,0,0,1-7.64-1,60,60,0,0,0-8.67-.44,73.61,73.61,0,0,0-9.41.44q-7.05,1-7.94,1a7.19,7.19,0,0,1-5.88-2.72,10.72,10.72,0,0,1-2.2-7c0-2.35.34-4,1-4.93a14.53,14.53,0,0,1,4.41-3.3c1.37-.79,2-1.62,2-2.5,0-.69-.59-2.06-1.76-4.12L266,64.33l-8.53,12.93q-2.94,4.41-2.94,6a2.48,2.48,0,0,0,1.33,2.06l2.79,1.76c2.06,1.28,3.09,3.48,3.09,6.62q0,9.7-9,9.7-.59,0-10.29-1.18a65.77,65.77,0,0,0-7.06-.44,42.15,42.15,0,0,0-7.2.59,53.51,53.51,0,0,1-7.79,1,10.06,10.06,0,0,1-7.64-3.09,11,11,0,0,1-2.94-7.94q0-9.41,7.64-9.4a21.68,21.68,0,0,1,2.94.29,19.85,19.85,0,0,0,2.79.29,3.79,3.79,0,0,0,2.43-.66A37,37,0,0,0,229.11,79Z"/><path class="cls-1" d="M405.66,64.33v8.52l.15,5a11.92,11.92,0,0,0,.44,3.68c.49,1.66,1.81,2.5,4,2.5a30.41,30.41,0,0,0,4.7-.52,31.29,31.29,0,0,1,4.7-.51q8.69,0,8.68,10a10,10,0,0,1-3,7.57,11.15,11.15,0,0,1-8,2.87q-3.82,0-11.39-.74T394.49,102q-7.5,0-11.91.44-10.14,1-11.32,1a10.09,10.09,0,0,1-7.57-2.94,10.69,10.69,0,0,1-2.87-7.79,10.49,10.49,0,0,1,2.28-7A7.23,7.23,0,0,1,368.91,83a18.43,18.43,0,0,1,3.53.51,17.56,17.56,0,0,0,3.38.52q2.94,0,3.67-3.83a38.89,38.89,0,0,0,.3-6.17V33.31a36.14,36.14,0,0,0-.3-6c-.49-2.54-1.71-3.82-3.67-3.82a16.75,16.75,0,0,0-3.46.52,17.55,17.55,0,0,1-3.6.51,7,7,0,0,1-5.66-2.79,10.57,10.57,0,0,1-2.28-6.91q0-10.72,10.88-10.73c2.26,0,5.88.2,10.88.59q11.32.87,18.52.88c3.33,0,7.06,0,11.17-.15q4.13-.15,16.47-.29,5,0,12.2-.3l8.82-.73a9.48,9.48,0,0,0,1.47-.15q7.35,0,7.35,6.47a33.4,33.4,0,0,1-.59,5.88,46,46,0,0,0-.88,7.94,43.06,43.06,0,0,0,.81,6.91,43,43,0,0,1,.81,6.9,11.6,11.6,0,0,1-3.09,8.38,10.67,10.67,0,0,1-8.09,3.24,10,10,0,0,1-7.86-3.24,12.58,12.58,0,0,1-2.87-8.67,45.11,45.11,0,0,1,.59-5.59,31.76,31.76,0,0,0,.44-4.55q0-5-7.35-5h-16q-5.73,0-7.28,1.4t-1.54,7.57v6.91q0,4.55,4,4.55,6.17,0,6.17-4.26c0-.29-.1-1.22-.29-2.79V34.78a6,6,0,0,1-.15-1q0-5.73,6.91-5.73,8.09,0,8.08,7.64c0,1-.09,2.55-.29,4.71s-.29,5-.29,8.38q0,2.94.58,8.89c.4,4,.59,6.93.59,8.89q0,9-7.64,9-7.8,0-7.79-8.23a4.37,4.37,0,0,1,.14-.88V64c0-2.44-1.86-3.67-5.58-3.67-1.86,0-3.06.24-3.6.73S405.66,62.66,405.66,64.33Z"/><path class="cls-1" d="M522.23,72.27H502.68q-8.39,0-8.38,10c0,1.57.83,2.35,2.5,2.35a15.76,15.76,0,0,0,2.2-.22,17.61,17.61,0,0,1,2.21-.22q5.43,0,5.44,8.68a11.43,11.43,0,0,1-2.5,7.64,8.27,8.27,0,0,1-6.62,2.94,83.11,83.11,0,0,1-9.11-1,65.93,65.93,0,0,0-8.67-.44,78,78,0,0,0-9.41.44c-5.2.69-8.28,1-9.26,1a10.21,10.21,0,0,1-7.43-2.79,9.79,9.79,0,0,1-2.86-7.35q0-10.29,7.79-10.29a26.26,26.26,0,0,1,2.79.22c1.27.14,2.21.22,2.79.22q2.79,0,4.56-3.09c.3-.59,1-2.4,2.06-5.44l20.28-57.77Q494.6,7.3,499,4.79q3.24-1.6,14.26-1.61,12.35,0,15.58,1.54t5.3,8.6L553,75.94q2.2,7.5,5.15,7.5a18.91,18.91,0,0,0,3.08-.44h1.62Q571,83,571,92.7a10.54,10.54,0,0,1-2.94,7.79,10.34,10.34,0,0,1-7.64,2.94A44.87,44.87,0,0,1,555,103a39.93,39.93,0,0,0-5.44-.74q-3.24-.28-8.38-.29a62.25,62.25,0,0,0-7.5.29,85,85,0,0,1-9.4,1.18,8.2,8.2,0,0,1-6.54-3,11.25,11.25,0,0,1-2.58-7.57q0-8.68,5.59-8.68a17.49,17.49,0,0,1,2.2.22,15.87,15.87,0,0,0,2.21.22c1.86,0,2.79-1,2.79-3.08a12.58,12.58,0,0,0-1.61-6.62A4.76,4.76,0,0,0,522.23,72.27ZM520,49.77l-7-30.13L503.85,51a3.51,3.51,0,0,0-.14,1c0,1.18,1.22,1.76,3.67,1.76h9.12c2.54,0,3.82-.68,3.82-2.05C520.32,51.78,520.22,51.15,520,49.77Z"/><path class="cls-1" d="M614.25,2A33.83,33.83,0,0,1,638.8,12.29a5,5,0,0,1-.15-1.47q0-8.23,8.82-8.23a9.05,9.05,0,0,1,6.69,2.57,9,9,0,0,1,2.57,6.69,49.49,49.49,0,0,1-.44,5.59,80.85,80.85,0,0,0-.73,8.67,45.92,45.92,0,0,0,.51,5.66,46.21,46.21,0,0,1,.52,5.66,9.16,9.16,0,0,1-3.31,7.35,12.89,12.89,0,0,1-8.6,2.79q-11.17,0-10.88-9.26l.15-4.56a9.32,9.32,0,0,0-4-8,16.61,16.61,0,0,0-10.44-3.16q-19.69,0-19.69,31.16,0,16.18,4.77,23.6t15.22,7.42q6.46,0,10.58-3a9,9,0,0,0,4-7.87l-.15-5.29a9,9,0,0,1,2.94-7.35,11.4,11.4,0,0,1,7.94-2.79,12.35,12.35,0,0,1,9.78,4.11q3.6,4.13,3.6,11.18,0,14-11.1,22.85t-28.59,8.9q-21.46,0-33.89-13.67T572.5,54.48q0-24.4,11.18-38.44T614.25,2Z"/><path class="cls-1" d="M694.81,84q5,0,5-9.12V32.58q0-9.85-7.2-9.85t-7.2,5a29.68,29.68,0,0,0,.51,4.49,30,30,0,0,1,.52,4.48q0,13.1-11,13.08a10.26,10.26,0,0,1-8.08-3.3c-2-2.21-2.94-5.17-2.94-8.9a68.06,68.06,0,0,1,.59-6.9,62.83,62.83,0,0,0,.44-7.06q0-1.77-.44-7.2-.3-3.67-.3-5.88,0-6.48,6.47-6.47c2.25,0,5.09.14,8.52.44q11.76,1,32.93,1t33.08-1c3.43-.3,6.22-.44,8.38-.44q6.62,0,6.61,6.47,0,2.21-.37,6.54t-.36,6.54c0,1.57.14,3.92.44,7.06q.58,6.16.59,7,0,5.6-3,8.82a10.41,10.41,0,0,1-8,3.23q-11,0-11-12.64a32.5,32.5,0,0,1,.44-4.7,33.28,33.28,0,0,0,.44-4.41q0-5.3-6.47-5.29-4.26,0-6,2.2t-1.76,7.65V74.91q0,9.12,5,9.12a31.63,31.63,0,0,0,4.77-.52,32.79,32.79,0,0,1,4.78-.51q8.82,0,8.82,8.82,0,11.61-11,11.61-4.27,0-10.15-.59-8.82-.89-15.14-.88a151.46,151.46,0,0,0-15.14.88,101.29,101.29,0,0,1-10.14.59q-11,0-11-10.73,0-9.7,9-9.7a32.79,32.79,0,0,1,4.78.51A31.6,31.6,0,0,0,694.81,84Z"/><path class="cls-1" d="M814.61,105.34q-22.35,0-34.55-13.52t-12.2-38.37q0-24,12.13-37.71T813.43,2q22.35,0,34.84,13.38t12.5,37.33q0,24.85-12.13,38.74T814.61,105.34Zm-.15-82.76q-19.11,0-19.11,31.16,0,14.85,3.68,22.05,4.54,9,15.28,9,19,0,19-30.28,0-16.75-4.49-24.33T814.46,22.58Z"/><path class="cls-1" d="M956.9,46.25q-4.26,2.94-13.37,5,10.58,1.77,15,6.25t4.41,13.31c0,1.76,0,3.48-.15,5.14V77.7q0,6,3.53,6a15.07,15.07,0,0,0,2.72-.37,15.79,15.79,0,0,1,2.72-.36A6.16,6.16,0,0,1,977,85.72a11.83,11.83,0,0,1,2,7.13,10.42,10.42,0,0,1-2.86,7.71,10.25,10.25,0,0,1-7.57,2.87,49.83,49.83,0,0,1-5-.37c-2.26-.24-3.92-.37-5-.37s-2.92.13-5.22.37a52.25,52.25,0,0,1-5.22.37A10.34,10.34,0,0,1,939.34,99Q936,94.46,936,87.11a2.5,2.5,0,0,1,.15-1l.29-8.52v-1c0-5.1-1.3-8.62-3.9-10.59S925.3,63,918.54,63c-2.75,0-4.46.74-5.15,2.21q-.74,1.47-.73,5.44V74q0,10,3.67,10a14.62,14.62,0,0,0,3.16-.52A15.26,15.26,0,0,1,922.8,83,6.37,6.37,0,0,1,928,85.79a11.07,11.07,0,0,1,2.13,6.91q0,10.72-10.29,10.73a83.77,83.77,0,0,1-9.56-.74,89.83,89.83,0,0,0-10.43-.73,95.37,95.37,0,0,0-10.88.73,91,91,0,0,1-10.44.74q-10.72,0-10.73-10.73a10.57,10.57,0,0,1,2.28-6.91A7,7,0,0,1,875.76,83a18.47,18.47,0,0,1,3.67.51,17.78,17.78,0,0,0,3.38.52q4,0,4-10V33.31a36.56,36.56,0,0,0-.29-6c-.49-2.54-1.72-3.82-3.68-3.82a16.77,16.77,0,0,0-3.45.52,17.55,17.55,0,0,1-3.6.51,7,7,0,0,1-5.66-2.79,10.57,10.57,0,0,1-2.28-6.91A11,11,0,0,1,870.69,7a9.65,9.65,0,0,1,7.42-3.09,4.33,4.33,0,0,1,1.32.15l10.44,1q4.41.44,9.41.44,8.67,0,21.9-.88,8.82-.59,13.09-.59,14,0,22.12,7t8.16,19Q964.55,41.11,956.9,46.25ZM923.53,23.61c-3.92,0-6.46.24-7.64.73-2.16,1-3.23,3.09-3.23,6.33v8.81c0,2.26.36,3.73,1.1,4.42s2.13,1,4.19,1q19.11,0,19.11-11.32Q937.06,23.61,923.53,23.61Z"/><path class="cls-1" d="M1022.61,30.67l7.94,15.87,8.82-15.87q2.51-4.56,2.5-5.89,0-1.61-2.94-3.23-3.83-2.06-3.82-7.06,0-10.42,10.58-10.43a44.94,44.94,0,0,1,6.47.44,83.91,83.91,0,0,0,9.7,1,58.54,58.54,0,0,0,7.72-.74,57.87,57.87,0,0,1,7.57-.73A10.1,10.1,0,0,1,1084.72,7a10.9,10.9,0,0,1,2.87,7.94,10.79,10.79,0,0,1-2.13,6.83,6.56,6.56,0,0,1-5.37,2.72,19.61,19.61,0,0,1-4-.59,14.44,14.44,0,0,0-2.94-.44,4.24,4.24,0,0,0-3.09,1,49.36,49.36,0,0,0-4.26,6.18l-19.4,31a23.73,23.73,0,0,0-3.53,11.47l-.15,4.11q-.3,6.76,4.71,6.77a27.74,27.74,0,0,0,4.55-.52,28.37,28.37,0,0,1,4.41-.51,7.18,7.18,0,0,1,5.81,2.79,11,11,0,0,1,2.28,7.2,10,10,0,0,1-2.94,7.65,11.07,11.07,0,0,1-7.94,2.79q-3.68,0-11.17-.74t-11.32-.73q-4.12,0-12.2.73t-12.2.74a10.5,10.5,0,0,1-7.79-2.94A10.3,10.3,0,0,1,996,92.85q0-9.85,8.37-9.85a29.81,29.81,0,0,1,4.49.51,28.74,28.74,0,0,0,4.48.52q4.26,0,4.26-6.77V73.15q0-4.56-3.82-10.73L992,26.7c-1.28-2.16-2.94-3.24-5-3.24a14.23,14.23,0,0,0-2.79.44,18,18,0,0,1-4,.59q-7.06,0-7.06-9,0-11.46,10.29-11.46a73.64,73.64,0,0,1,8.38.73,74.84,74.84,0,0,0,8.82.74A76.5,76.5,0,0,0,1011,4.65a49.46,49.46,0,0,1,6.61-.59q10,0,10,11,0,4.56-3.38,6.32-2.06,1.19-2.94,1.62a1.52,1.52,0,0,0-.88,1.47v.44a4.56,4.56,0,0,0,.59,2.35A24,24,0,0,0,1022.61,30.67Z"/><path class="cls-2" d="M137.72,136.14S270.24,242.88,409.91,254.52C551.1,266.29,699.46,183,699.46,183"/><path class="cls-2" d="M636.8,168.05s99.08-45.15,120-28c22.5,18.44-33.08,99.26-33.08,99.26"/></svg>